<?xml version="1.0" encoding="utf-8"?>
<!-- Generator: Adobe Illustrator 24.1.0, SVG Export Plug-In . SVG Version: 6.00 Build 0)  -->
<svg version="1.1" id="Layer_1" xmlns="http://www.w3.org/2000/svg" xmlns:xlink="http://www.w3.org/1999/xlink" x="0px" y="0px"
	 viewBox="0 0 241.16 194.64" style="enable-background:new 0 0 241.16 194.64;" xml:space="preserve">
<style type="text/css">
	.st0{fill:#D84526;}
	.st1{fill:#D84523;}
</style>
<g>
	<path class="st0" d="M198.35,68.91c6.3,3.62,12.78,6.96,16.6,13.65c8.54,14.96,3.37,32.96-11.88,41.02
		c-1.13,0.6-2.31,1.12-3.32,2.7c6.85,0,13.7,0,20.55,0c11.66,0,9.13-0.46,9.3,9.22c0.15,8.37,0.03,8.37-8.26,8.38
		c-58.46,0-116.91-0.01-175.37,0.02c-7.57,0-6.38-1.01-6.48,6.7c-0.05,4.16,0.15,8.34-0.06,12.49c-0.16,3.11,1.03,3.97,4.03,3.92
		c10.82-0.15,21.65-0.06,32.48-0.06c49.63,0,99.26-0.02,148.89,0.07c1.8,0,5.31-1.66,4.55,2.86c-7.13,0.36-7.18,0.41-6.68,8.37
		c0.08,1.28-0.3,3.02,1.23,3.48c1.84,0.55,1.87-1.41,2.47-2.48c0.67-1.19,1.25-2.51,2.98-1.36c0.52,6.68,0.52,6.68-5.83,6.68
		c-61.45,0.01-122.9,0.03-184.36,0.02c-18,0-31.14-11.54-31.71-27.76c-0.59-16.81,12.47-30.38,29.38-30.54
		c8.76-0.09,8.69-0.09,8.82-8.8c0.13-9.1-1.8-8.38,8.56-8.38c42.47,0.01,84.93-0.05,127.4,0.12c4.41,0.02,5.96-1.15,5.54-5.58
		c0-4.33-0.01-7.7-0.01-11.98c0.39-4.47-0.97-5.91-5.7-5.88c-35.14,0.21-70.28,0.12-105.42,0.12c-8.66,0-17.33-0.18-25.98,0.08
		c-3.64,0.11-4.47-1.21-4.51-4.57c-0.15-12.87-0.24-12.88,12.7-12.82c5.32,0.03,10.65,0.13,15.97,0.2c3.89-0.49,11.7-0.24,11.7-0.24
		s-3.96-0.23-5.54-1.62C66.49,62.56,58.11,49.6,60.1,35.51c2.09-14.79,14.23-25.29,29.78-25.35c28.46-0.11,56.93-0.03,85.39-0.03
		c17.64,0,35.29,0.09,52.93-0.07c3.64-0.03,5.67,0.52,5.1,4.8c-0.55,4.08,1.69,9.38-0.84,12.04c-2.57,2.7-7.89,0.83-11.99,0.83
		c-41.11,0.07-82.23,0.11-123.34-0.06c-4.08-0.02-5.67,0.96-5.36,5.12c0,6.66-0.67,11.97,0.7,17.9c1.59,1.42,3.5,0.68,5.24,0.68
		c43.23,0.05,86.47,0.04,129.7,0.04c5.41,0,5.41,0.02,5.43,5.38c0.04,11.58,0.04,11.55-11.7,11.6c-7.81,0.03-15.62-0.19-23.43,0.13
		c-0.26,0.01-0.42,0.05-0.49,0.07C197.46,69.16,198.02,68.64,198.35,68.91z"/>
	<path class="st1" d="M229.39,177.87c-2.15,0.2-2.07,1.82-2.04,3.32c0.04,2.32-1.35,2.67-3.25,2.67c-2.29,0.01-2.78-1.28-2.75-3.21
		c0.05-2.66-0.02-5.32,0.01-7.98c0.05-5.22,1.72-6.15,6.23-3.55c0.56,0.32,1.2,0.5,1.8,0.75
		C229.39,172.54,229.39,175.21,229.39,177.87z"/>
</g>
</svg>
