<?xml version="1.0" encoding="utf-8"?>
<!-- Generator: Adobe Illustrator 24.1.0, SVG Export Plug-In . SVG Version: 6.00 Build 0)  -->
<svg version="1.1" id="Layer_1" xmlns="http://www.w3.org/2000/svg" xmlns:xlink="http://www.w3.org/1999/xlink" x="0px" y="0px"
	 viewBox="0 0 164.45 165.08" style="enable-background:new 0 0 164.45 165.08;" xml:space="preserve">
<style type="text/css">
	.st0{fill:#35B5A7;}
	.st1{fill:#35B5A6;}
	.st2{fill:#37B5A9;}
	.st3{fill:#30B4A4;}
	.st4{fill:#39B6AA;}
	.st5{fill:#2DB3A5;}
	.st6{fill:#36B5AA;}
	.st7{fill:#37B5A8;}
	.st8{fill:#36B5AC;}
	.st9{fill:#3AB6A9;}
	.st10{fill:#3AB6A8;}
	.st11{fill:#32B4A7;}
	.st12{fill:#34B5A8;}
	.st13{fill:#39B6AB;}
	.st14{fill:#38B6AC;}
	.st15{fill:#3BB6AC;}
	.st16{fill:#36B5AB;}
	.st17{fill:#3AB6AE;}
	.st18{fill:#3AB5A7;}
	.st19{fill:#38B5A6;}
	.st20{fill:#3CB6A9;}
	.st21{fill:#38B5A7;}
	.st22{fill:#3CB6AA;}
	.st23{fill:#29B2A0;}
	.st24{fill:#4CB8A1;}
	.st25{fill:#48B9AF;}
	.st26{fill:#2EB3A3;}
	.st27{fill:#2BB3A3;}
</style>
<g>
	<path class="st0" d="M19.97,100.29c-1.27-3.52-1.81-7.2-2.23-10.89c-0.65-5.7-0.46-11.4,0.45-17.06
		c1.15-7.12,3.39-13.91,6.83-20.25c5.46-10.09,13.01-18.27,22.73-24.42c3.48-2.2,7.17-3.97,10.94-5.59c0.3-0.13,0.65-0.14,0.98-0.21
		c1.23,1.1,2.39,1.22,3.86,0.09c1.03-0.79,2.07-1.14,3.32-1.03c0.49,0.04,0.95-0.07,1.35-0.38c0.24-0.18,0.64-0.39,0.78-0.22
		c1.04,1.27,2.19-0.11,3.16,0.18c1.25,0.38,2.45,0.09,3.51-0.2c3.7-1.02,7.44-0.34,11.15-0.55c0.78-0.04,1.51-0.22,2.25-0.41
		c0.76-0.18,1.62-0.31,1.63,0.92c0,0.68,0.51,0.54,0.92,0.62c1.9,0.38,3.81,0.64,5.71,1.08c1.95,0.46,3.88,0.92,5.76,1.61
		c0.48,0.17,0.94,0.06,1.41-0.08c0.63-0.19,1.5-0.53,1.67,0.39c0.15,0.86-0.65,1.15-1.21,1.18c0.3,0,0.86,0,1.11,0.59
		c0.16,0.38-0.26,0.44-0.53,0.67c0.74,0,1.05-0.65,1.6-0.84c0.62-0.21,1.34-0.79,1.82-0.09c0.54,0.78-0.44,1.06-0.89,1.55
		c0.74-0.18,1.41-0.42,2.1-0.54c1-0.17,1.27,0.22,0.74,1.11c-0.34,0.3-0.61,0.71-1.3,0.68c0.7,0.16,0.92-0.26,1.19-0.6
		c1.04-0.14,1.78,0.52,2.59,0.97c0.26,0.15,0.48,0.48,0.26,0.71c-0.52,0.57-0.13,1.42-0.69,1.96c-0.68,0.24-1.21-0.12-1.75-0.43
		c-6.96-3.99-14.47-6.42-22.42-7.21c-14.7-1.45-28.25,1.89-40.42,10.41c-3.11,2.18-6.04,4.56-8.63,7.34
		c-0.39,0.42-0.79,0.85-1.4,0.95c-0.56-0.05-0.85-0.07-1.35,0.58c-0.96,1.25-1.95,2.48-2.87,3.77c-0.48,0.67-1.56-0.18-1.93,0.5
		c-0.24,0.44,0.58,1.05,0.02,1.78c-0.97,1.25-2.2,2.16-3.43,3.08c-0.39-0.06-0.61,0.06-0.69,0.5c-0.13,0.7-0.54,1.3-1.13,1.6
		c-1.35,0.69-1.27,1.84-0.97,2.95c0.27,0.97,0.24,1.62-0.85,1.82c-0.52,0.1-0.14,0.34-0.11,0.48c0.08,0.42-0.01,0.77-0.34,1.03
		c-0.29,0.23-0.56-0.13-0.76-0.1c-0.35,0.05,0.04,0.24,0.06,0.38c0.05,0.28,0.17,0.58,0.09,0.85c-0.38,1.23-1.11,2.31-1.55,3.53
		c-0.34,0.96-0.69,1.88-0.66,2.92c0.02,0.48,0.04,1.04-0.3,1.38c-0.96,0.98-0.75,2.19-0.86,3.37c-0.28,2.89-0.64,5.77-0.97,8.65
		c-0.39,3.49-0.62,7.07,0.71,10.48c0.27,0.7,0.22,1.41,0.24,2.13c0.02,0.62-0.09,1.26,0.34,1.8c0.1,0.19,0.16,0.38,0.19,0.59
		c0.03,1.05,0.67,1.98,0.55,3.08c-0.07,0.66,0.12,1.42-0.65,1.74C20.26,101.57,20.61,100.29,19.97,100.29z"/>
	<path class="st1" d="M135.44,119.84c-6.47,9.05-14.66,16.08-24.63,21.03c-4.98,2.47-10.24,4.14-15.64,5.38
		c-0.55,0.13-1.14,0.09-1.72,0.12c-1.33,0.36-2.75,0.1-4.07,0.59l0.01-0.02c-1.49,0.28-3.01,0.01-4.5,0.16
		c-0.19,0.04,0.02,0.24-0.05,0.06c-0.02-0.04,0.02-0.08,0.12-0.07c0.7,0.02,1.41-0.17,2.09,0.11c-3.25,0.44-6.5,0.43-9.75-0.01
		c0.45-0.26,0.93-0.08,1.39-0.14c-1.6,0.08-3.15-0.25-4.72-0.44c-0.53-0.06-0.98-0.32-1.02-0.84c-0.05-0.65,0.56-0.51,0.94-0.56
		c0.47-0.06,0.97-0.21,1.43-0.08c3.04,0.88,6.03,0.14,9.04-0.21c0.43-0.05,0.87-0.09,1.29-0.01c0.46,0.09,0.86,0.26,0.56,0.87
		c-0.05,0.09-0.31,0.13-0.15,0.21c0.11,0.06,0.44,0.05,0.54-0.11c0.66-1.05,0.76-1.18,1.66-0.89c0.7,0.23,1.33,0.21,1.95-0.06
		c1.38-0.59,2.98-0.46,4.28-1.01c1.26-0.53,2.49-0.87,3.79-1.12c0.85-0.16,1.66-0.49,2.53-0.12c0.49,0.21,0.75-0.15,0.88-0.5
		c0.68-1.72,2.27-1.8,3.7-1.94c0.79-0.07,1.49,0.05,2.2-0.52c0.45-0.36,1.12-0.55,1.72-0.68c0.68-0.15,1.43-0.05,1.45-1.09
		c0.01-0.25,0.37-0.41,0.67-0.45c0.2,0.1,0.29,0.04,0.23-0.2c0.45-0.88,1.24-0.09,1.87-0.42c-0.4-0.17-0.8-0.32-0.77-0.83
		c0.03-0.52,0.41-0.8,0.84-0.85c0.94-0.11,1.51-0.85,2.15-1.35c0.7-0.55,1.3-0.66,2.15-0.34c-0.12-1.63,1.16-1.88,2.12-2.47
		c0.7-0.43,1.9-0.4,1.51-1.89c-0.15-0.59,0.74-0.84,1.33-0.66c0.98,0.3,1.3-0.17,1.69-0.97c0.6-1.25,1.67-2.21,2.81-2.9
		c1.05-0.63,1.64-1.34,1.83-2.53c0.26-1.6,0.84-1.97,2.46-1.59c-0.51-1.02-1.81-0.14-2.17-1.08c-0.21-0.59,0.12-1.04,0.38-1.51
		c0.06-0.11,0.13-0.22,0.21-0.33c0.19-0.25,0.37-0.51,0.52-0.78c0.16-0.27,0.35-0.52,0.55-0.77c0.41-0.58,0.9-1.11,1.08-1.84
		c2.95-4.42,5.17-9.17,6.69-14.26c1.33-4.46,2.15-9,2.45-13.67c0.5-7.81-0.45-15.39-2.94-22.77c-2.08-6.18-5.17-11.84-9.13-17.03
		c-0.6-0.78-1.43-1.44-1.51-2.54c0.86-0.82,1.49-0.12,2.06,0.39c0.46,0.41,0.83,0.91,1.36,1.25c0.24,0.15,0.48,0.3,0.79,0.3
		c0.47,0,0.93-0.82,1.38-0.11c0.48,0.74,0.66,1.58,0.31,2.46c-0.38,0.94-0.17,1.78,0.47,2.53c0.22,0.25,0.44,0.48,0.81,0.52
		c1.33,0.14,1.84,0.66,1.98,1.93c0.06,0.51-0.08,1-0.15,1.5c0.14-0.61,0.44-1.09,1.06-1.24c0.49-0.12,0.66,0.25,0.74,0.66
		c0.02,0.21-0.02,0.41-0.1,0.6c-0.47,0.62-0.42,1.42-0.74,2.1c-0.35,0.74,0.53,0.88,0.73,1.35c0.26,0.41,0.13,0.94,0.39,1.34
		c0.22,0.36,0.29,0.78,0.49,1.18c0.41-0.81,0.31-2.07,1.59-2.04c0.57,0.02,0.54,0.66,0.43,1.15c-0.19,0.39-0.46,0.76-0.38,1.24
		c0.01,0.9,0.95,1.34,1.08,2.19c0.05,0.32,0.1,0.64,0.11,0.97c-0.01,0.13-0.04,0.26-0.09,0.38c-0.12,0.27-0.12,0.56-0.03,0.84
		c0.63,2.01,1.15,4.04,1.63,6.08c1.03,4.64,1.64,9.33,1.36,14.1c-0.1,1.68-0.6,3.29-0.78,4.96c-0.09,0.89-0.4,1.77-0.39,2.69
		c0,0.24,0.04,0.56-0.11,0.7c-1.59,1.53-0.53,3.2-0.24,4.81c0.11,0.62,0.11,1.24-0.35,1.6c-1.53,1.18-1.09,2.77-1.01,4.3
		c0.03,0.52,0.27,1.11-0.14,1.52c-0.51,0.5-0.9-0.27-1.58-0.3c1.19,2.77-0.73,4.29-2.23,6.13c0.19,0.39,0.94,0.37,1.21,0.91
		c-0.87,2.18-2.28,4.05-3.49,6.03C135.81,119.25,135.75,119.63,135.44,119.84z"/>
	<path class="st2" d="M138.34,54.19c-0.3-0.95-0.59-0.16-0.85,0.02c-0.32,0.21-0.23,0.61-0.38,0.9c-0.16,0.32-0.35,0.8-0.82,0.52
		c-0.34-0.21-0.17-0.55,0.02-0.87c0.51-0.85,0.4-1.66-0.12-2.53c-0.3-0.5-0.28-0.86-1.04-0.43c-0.75,0.43-2.25-1.6-2.04-2.76
		c0.19-1.06,0.53-2.11,0.04-3.2c-0.84,0.8-2.65,0.59-3.16-0.63c-0.46-1.09-1.3-1.04-2.06-1.38c-0.97,0.04-1.39-0.75-1.91-1.33
		c-3.49-3.91-7.52-7.17-11.92-9.99c-0.5-0.32-1.17-0.54-1.11-1.34c0.31-0.66-1.34-1.68,0.68-2.01c-1.17-0.58-2.07-1.03-2.97-1.48
		c0.06-0.31,0.12-0.63,0.23-1.24c-0.96,0.84-2.05,0.47-2.89,1.14c-0.34,0.28-0.7-0.02-0.83-0.48c-0.14-0.51,0.16-0.56,0.53-0.58
		c0.54-0.03,0.83-0.39,1.09-0.93c-0.94-0.36-1.54,0.35-2.13,0.69c-0.79,0.46-1.4,0.86-2.06-0.11c0.29-0.45,0.84,0,1.16-0.36
		c-0.59-0.7-1.37-0.31-2.13-0.27c0.31-1.24,2.14-0.25,2.2-1.67c-0.21-0.28-0.59-0.29-0.77-0.16c-1.03,0.78-1.97,0.5-3.04,0.01
		c-0.86-0.4-1.76-0.89-2.85-0.57c-0.79,0.23-0.42-0.82-0.88-1.05c-0.51,0.14,0.2,0.9-0.5,0.96c-0.48,0.04-0.69-0.26-0.87-0.61
		c-0.23-0.46-0.64-0.58-1.09-0.51c-1.79,0.29-3.38-0.9-5.18-0.61c-0.62,0.1-0.92-0.36-0.6-0.92c0.59-1.03-0.35-0.89-0.66-0.73
		c-1.92,0.97-3.94,0.4-5.91,0.51c-1.58,0.09-3.16,0.08-4.74,0c-1.56-0.08-2.9,0.87-4.49,0.77c-0.6-0.04-1.18,0.48-1.92-0.05
		c-0.73-0.52-1.29,0.34-1.9,0.64c-0.71,0.36-0.67,0.4-0.87-0.38c-0.13-0.54-0.91-0.6-0.95-0.48c-0.39,1.24-1.45,0.75-2.04,0.62
		c-1.72-0.38-2.65,0.94-3.78,1.64c-1.14,0.71-2.04-0.05-3.03,0.01c-0.43,0.02-0.18-0.68-0.15-1.07c0,0,0.01,0.02,0.01,0.02
		c1.73-0.3,3.33-1,4.94-1.67c0.07-0.07,0.14-0.08,0.23-0.04c0.64-0.39,1.58,0.37,2.08-0.55c0.16-0.02,0.31-0.04,0.47-0.06
		c0.63-0.09,1.25-0.2,1.83-0.5c0.25-0.02,0.51-0.04,0.76-0.06c0.67-0.23,1.37-0.02,2.05-0.16c-0.37,0.07-0.74,0.13-1.08-0.1
		c0.78-0.45,1.65-0.28,2.48-0.32c1.04-0.25,2.1-0.01,3.14-0.16c0.19-0.04-0.13-0.2-0.02-0.05c-0.54,0.14-1.08,0.18-1.61-0.07
		c2.89-0.49,5.8-0.49,8.71-0.45c5.62,0.07,11.16,0.88,16.56,2.48c4.12,1.22,8.03,2.88,11.89,4.83c7.3,3.69,13.48,8.7,18.92,14.73
		c2.98,3.31,5.46,6.97,7.73,10.79c0.12,0.2,0.14,0.45,0.21,0.68c0.18,0.67,0.34,1.36,0.31,2.05
		C139.24,53.78,139.24,54.49,138.34,54.19z"/>
	<path class="st3" d="M129.64,119.18c0.4,0.87,1.22,0.02,1.8,0.42c0.16,0.11,0.6-0.13,0.56,0.39c-0.04,0.45,0.38,0.98-0.12,1.34
		c-0.4,0.29-0.55-0.23-0.81-0.39c-0.61-0.39-1.54,0.19-1.47,1.09c0.14,1.6-0.93,2.14-1.93,3.04c-1.09,0.97-2.9,1.52-2.85,3.6
		c0.01,0.65-1.02,0.56-1.62,0.36c-0.32-0.1-0.61-0.31-0.95-0.19c-0.37,0.14-0.8,0.45-0.2,0.74c1.15,0.56,0.18,0.91-0.13,1.09
		c-0.85,0.5-1.78,0.87-2.67,1.3c-0.62,0.3-1.24,0.62-0.76,1.5c0.11,0.2,0.25,0.44,0.01,0.65c-0.2,0.17-0.47,0.15-0.67,0.02
		c-0.63-0.42-1.32-1.18-1.45,0.36c-1.06-0.38-1.22,1.12-2.18,1.04c-0.42-0.04-1.11-0.08-1.11,0.59c0,0.63,0.67,0.33,1.03,0.48
		c0.17,0.07,0.32,0.19,0.47,0.44c-0.8-0.06-1.44,1.03-2.37,0.18c-0.15-0.14-0.33,0.25-0.38,0.49c-0.18,0.05-0.51,0.08-0.52,0.16
		c-0.39,2.11-2.72,1.29-3.52,2.26c-0.98,1.18-1.77,0.29-2.61,0.48c-0.82,0.18-1.62,0.44-2.4,0.75c-0.26,0.1-0.53,0.36-0.56,0.77
		c-0.04,0.7-0.82,1.25-1.42,0.96c-0.48-0.23-0.99-0.32-1.38-0.11c-1.45,0.78-3.13,0.69-4.68,1.35c-1.71,0.72-3.83,1.07-5.8,1.38
		c-0.62,0.1-1.77-0.93-2.01-0.12c-0.35,1.16-1.07,0.56-1.6,0.75c-0.27,0.09-0.66,0.12-0.97-0.23c0.37-0.69,1.32,0.05,1.72-0.68
		c-1.47-0.43-2.78,0.36-4.16,0.39c-1.3,0.02-2.68-0.41-3.89,0.48c-0.12,0.09-0.4,0.06-0.55-0.02c-1.34-0.74-2.76-0.85-4.63-0.43
		c2.27,0.82,4.39,0.79,6.47,1.24c-0.69,0.27-1.35,0.09-1.99,0.13c-4.37-0.13-8.6-1.05-12.8-2.21c-5.27-1.46-10.27-3.59-14.96-6.37
		c-5.92-3.51-11.28-7.77-15.75-13.05c0.12-0.73,0.53-0.69,1.05-0.42c0.08,0.04,0.26,0.38,0.31-0.02c0.02-0.13-0.04-0.27-0.02-0.41
		c0.11-0.42,0.3-0.77,0.7-0.97c0.67-0.11,0.81,0.36,0.91,0.85c0.09,0.47,0.29,0.86,0.54,1.29c1.26,2.19,3.52,2.76,5.62,3.62
		c0.94,0.38,1.66,1.11,2.29,1.87c0.53,0.65,1.14,1.17,1.89,1.49c1.28,0.55,1.31,0.58,0.57,1.96c1.75-0.64,3.08,0.12,4.16,1.24
		c0.96,1,2.13,1.48,3.39,1.89c0.28,0.88,0.76,1.36,1.79,1.19c0.72-0.11,1.38,0.34,2.07,0.54c1.56,0.44,3.1,0.92,4.73,1.11
		c0.92,0.1,2.06,0.25,2.07,1.73c2.35-1.4,4.66-0.07,6.99,0.26c1.69,0.23,3.3,1.07,5.06,0.8c1.64-0.26,3.24-0.44,4.93-0.39
		c1.34,0.05,2.59,0.63,3.96,0.44c0.81-0.12,1.57-0.26,2.35-0.54c1.86-0.67,3.78-1.15,5.7-1.63c1.72-0.44,3.45-0.54,5.17-0.8
		c0.1-0.01,0.2-0.02,0.28-0.07c2.75-2.07,6.32-2.48,9.12-4.44c0.45-0.32,1.07-0.48,1.16-1.16c0.18-0.5,0.65-0.69,1.06-0.92
		c4.39-2.42,8.3-5.47,11.93-8.91c0.39-0.37,0.69-0.97,1.4-0.83c0.07,0.06,0.12,0.14,0.19,0.2c0.14,0.12,0.07,0.31,0.16,0.45
		c0-0.19-0.07-0.36-0.2-0.5c-0.28-0.41,0.04-0.69,0.2-1.01c0.1-0.15,0.22-0.29,0.34-0.42c0.12-0.13,0.24-0.27,0.36-0.41
		c0.08-0.1,0.16-0.18,0.25-0.27c0.32-0.31,0.56-0.67,0.81-1.04c0.23-0.32,0.48-0.62,0.84-0.8c0.42-0.08,0.65-0.32,0.66-0.75
		c0.1-0.35,0.3-0.59,0.66-0.7C129.39,119.09,129.52,119.12,129.64,119.18z"/>
	<path class="st4" d="M138.34,54.19c0.68-0.11,0.68-0.65,0.51-1.07c-0.27-0.68-0.06-1.27,0.1-1.9c1.01,1.22,1.54,2.71,2.2,4.12
		c-0.48,0.84,0.4,1.16,0.67,1.71c1.26,2.16,1.92,4.54,2.57,6.92c-0.13,0.67,0.19,1.25,0.41,1.84c0.03,1.39,0.5,2.66,1.01,3.93
		c1.25,4.67,1.33,9.45,1.31,14.24c-0.03,6.36-1.16,12.54-3.07,18.6c-0.75,2.39-1.68,4.7-2.84,6.92c-0.72,0.6-0.87,1.49-1.14,2.32
		l0,0c-0.27,0.21-0.42,0.47-0.38,0.82c0.06,0.18-0.06,0.26-0.19,0.32c-0.43-0.02-0.88,0.05-1.21-0.33
		c-0.31-0.36-1.21-0.13-1.05-0.94c0.13-0.68,0.77-0.38,1.2-0.48c1.4-0.33,0.48-1.37,0.6-2.1c0.42-0.18,0.94,0.49,1.26-0.18
		c0.25-0.52,0.48-1.07,0.14-1.62c-0.18-0.29-0.42-0.54-0.38-0.9c0.06-0.49-0.27-1.16,0.35-1.42c0.82-0.35,0.67,0.56,0.98,0.89
		c0.09,0.1,0.24,0.15,0.42,0.26c0.47-1.05-0.63-1.96-0.11-3.08c0.41-0.88-0.21-1.98,1.1-2.84c1.07-0.7,0.1-2.23-0.15-3.35
		c-0.22-0.97-0.83-1.89,0.54-2.48c0.31-0.13,0.3-0.46,0.31-0.75c0.03-1.14,0.21-2.22,0.48-3.35c0.91-3.82,0.9-7.77,0.6-11.66
		c-0.19-2.39-1.02-4.73-1.07-7.18c0.03-0.05,0.06-0.11,0.09-0.16c0.12-0.14,0.28-0.24,0.42-0.37c0.34-0.57,0.34-1.11-0.24-1.5
		c-0.56-0.37-0.63-0.91-0.68-1.49c-0.01-0.33,0-0.66-0.01-0.99c0-0.95-0.65-1.62-1.02-2.41c0-0.1,0-0.19,0-0.29
		c0-0.32-0.01-0.64-0.29-0.86c0-0.96-1.5-1.17-1.15-2.3c0.4-0.28,0.18-0.87,0.58-1.15c-0.09-0.33,0.2-0.91-0.34-0.92
		c-0.39,0-0.75,0.43-0.78,0.9c-0.04,0.69-0.06,1.35-0.96,1.71c-0.04-1.23-1.06-2.15-0.8-3.42c0.53-0.44,0.85-0.11,1.14,0.34
		c0.41-0.88,0.49-1.48-0.73-1.82c-1.03-0.29-0.85-1.19-0.41-1.98C138.34,54.57,138.34,54.38,138.34,54.19z"/>
	<path class="st5" d="M19.97,100.29c0.06-0.22,0.13-0.43,0.27-0.91c0.27,0.69,0.45,1.15,0.7,1.8c0.81-1.06,0.46-2.15,0.24-3.06
		c-0.12-0.52-0.32-1.04-0.33-1.59c0.5-0.81,0.03-1.67,0.16-2.51c0.07-0.47-0.03-0.96,0.13-1.42c0.12-0.34,0.35-0.58,0.74-0.56
		c0.42,0.02,0.62,0.33,0.59,0.68c-0.17,1.91,1.39,3.78,0.14,5.73c-0.14,0.21-0.12,0.43,0.21,0.54c0.92,0.31,1.11,1.16,1.25,1.94
		c0.32,1.72,0.33,3.52,1.57,4.94c0.15,0.17,0.2,0.47,0.12,0.69c-0.26,0.81,0.06,1.19,0.81,1.51c0.57,0.24,1.17,0.95,1.01,1.46
		c-0.48,1.49,0.57,2.31,1.17,3.33c0.43,0.74,0.9,1.46,1.36,2.18c0.87,1.35,0.92,1.32-0.59,2.15c-0.44,0.14-0.86,0.08-1.27-0.11
		c-0.44-0.25-0.83-0.55-0.85-1.12c0.04-0.08,0.1-0.14,0.2-0.17c-0.07-0.01-0.09,0.06-0.15,0.08c-0.15,0.2-0.35,0.29-0.58,0.32
		c-1.51-2.12-2.53-4.51-3.67-6.83c-0.28-0.58-0.75-1.12-0.68-1.84c0.11-0.28,0.3-0.43,0.61-0.32c0.13,0.14-0.04-0.06,0.09,0.08
		c-0.04-0.07-0.1-0.11-0.15-0.18c-0.25-1.7-1.35-3.1-1.63-4.8c-0.3,0.19-0.32,0.54-0.61,0.65
		C20.13,102.17,20.23,101.17,19.97,100.29z"/>
	<path class="st6" d="M42.47,20.53c-0.09,0.44-0.29,0.65-0.6,0.86c-3.65,2.45-7.08,5.17-10.24,8.24c-0.42,0.41-0.9,0.69-1.35,0.16
		c-0.47-0.55,0.15-0.88,0.45-1.17c3.19-3.03,6.6-5.79,10.26-8.24c0.35-0.24,0.74-0.5,1.19-0.22C42.32,20.25,42.4,20.43,42.47,20.53z
		"/>
	<path class="st7" d="M21.65,123.92c0.03,0.43-0.18,0.66-0.46,0.72c-0.42,0.09-0.69-0.2-0.92-0.54c-1.5-2.21-2.85-4.5-4.07-6.87
		c-0.85-1.65-1.74-3.28-2.38-5.02c-0.15-0.41-0.42-0.83,0.14-1.1c0.5-0.24,0.84,0.07,1.02,0.5c1.75,4.12,3.9,8.02,6.39,11.75
		C21.5,123.54,21.58,123.77,21.65,123.92z"/>
	<path class="st6" d="M48.9,147.91c1.1,0.5,2.18,0.99,3.26,1.48c2.94,1.36,5.94,2.56,9.08,3.38c0.23,0.06,0.46,0.13,0.68,0.23
		c0.41,0.17,0.82,0.4,0.61,0.95c-0.2,0.53-0.63,0.5-1.08,0.35c-2.38-0.83-4.79-1.59-7.14-2.51c-1.85-0.73-3.62-1.68-5.44-2.48
		c-0.48-0.21-0.72-0.48-0.6-0.97C48.33,148.07,48.57,147.87,48.9,147.91z"/>
	<path class="st2" d="M125.61,21.96c0.32-0.01,0.51,0.2,0.75,0.37c3.55,2.59,6.84,5.47,9.87,8.66c0.41,0.43,0.94,0.91,0.33,1.44
		c-0.56,0.48-0.92-0.16-1.27-0.52c-2.93-3.02-6.05-5.82-9.45-8.31c-0.4-0.29-0.94-0.56-0.75-1.25
		C125.17,22.07,125.34,21.95,125.61,21.96z"/>
	<path class="st7" d="M98.62,155.26c-0.35-0.71-0.19-1.19,0.63-1.37c4.23-0.96,8.33-2.33,12.31-4.06c0.45-0.2,1.06-0.59,1.37,0.1
		c0.34,0.78-0.37,0.86-0.9,1.1c-3.17,1.44-6.45,2.53-9.8,3.44c-0.46,0.12-0.89,0.34-1.33,0.52
		C100.17,155.27,99.44,155.69,98.62,155.26z"/>
	<path class="st8" d="M8.13,74.13c0.5-4.26,1.3-8.48,2.57-12.6c0.15-0.47,0.2-1.32,1.07-0.96c0.7,0.29,0.34,0.92,0.19,1.38
		c-1.27,4.02-1.94,8.16-2.57,12.3c-0.08,0.5,0.23,1.34-0.71,1.26C7.74,75.45,8.29,74.64,8.13,74.13z"/>
	<path class="st9" d="M156.8,77.01c-0.31,0.63,0.53,1.81-0.61,1.89c-1.12,0.07-0.7-1.2-0.76-1.81c-0.4-4.1-0.97-8.16-1.98-12.16
		c-0.11-0.44-0.23-0.87,0.38-1.03c0.59-0.16,0.78,0.24,0.87,0.68c0.49,2.28,1.02,4.56,1.42,6.86
		C156.45,73.28,156.59,75.14,156.8,77.01z"/>
	<path class="st10" d="M149.35,115.37c-0.24,0.49-0.52,1.14-0.86,1.77c-1.83,3.39-3.81,6.69-6.15,9.76
		c-0.29,0.38-0.5,1.22-1.28,0.66c-0.78-0.56-0.06-1.05,0.23-1.43c2.58-3.43,4.74-7.12,6.71-10.92c0.24-0.46,0.44-0.88,1.03-0.73
		C149.35,114.56,149.38,114.89,149.35,115.37z"/>
	<path class="st8" d="M82.59,12.38c2.54-0.19,5.05,0.18,7.57,0.35c0.5,0.03,1.04,0.07,0.96,0.76c-0.08,0.67-0.61,0.57-1.11,0.53
		c-3.95-0.27-7.91-0.56-11.88-0.22c-0.55,0.05-1.44,0.33-1.43-0.64c0-0.86,0.86-0.75,1.45-0.77C79.63,12.36,81.11,12.38,82.59,12.38
		z"/>
	<path class="st11" d="M28.33,116.69c0.36,0.19,0.73,0.33,1.15,0.29c1.16,0.21,1.68,0.98,2.2,2c0.82,1.61,1.61,3.29,2.96,4.58
		c0.26,0.3,0.48,0.62,0.58,1c0.01,0.06,0.01,0.13,0.02,0.19c0.22,0.32,0.83,0.56,0.43,1.04c-0.4,0.48-0.78-0.03-0.97-0.3
		c-0.4-0.53-0.61-0.11-0.88,0.08c-2.39-2.55-4.5-5.31-6.27-8.33C27.6,116.77,28.09,116.91,28.33,116.69z"/>
	<path class="st10" d="M137.89,125.04c-0.23-0.02-0.55,0.03-0.62-0.23c-0.09-0.3-0.12-0.61,0.14-0.93c2.7-3.28,4.7-6.99,6.69-10.71
		c0.21-0.39,0.48-0.97,1.07-0.63c0.55,0.32,0.3,0.84,0.08,1.27c-1.83,3.73-4.02,7.24-6.47,10.58
		C138.57,124.68,138.36,125.06,137.89,125.04z"/>
	<path class="st6" d="M12.46,74.81c0.5-4.17,1.18-8.3,2.53-12.3c0.14-0.43,0.23-0.9,0.81-0.76c0.59,0.14,0.49,0.69,0.4,1.07
		c-0.42,1.85-0.95,3.68-1.34,5.54c-0.37,1.77-0.62,3.56-0.92,5.35c-0.07,0.42-0.06,0.86-0.18,1.27c-0.13,0.45-0.05,1.22-0.84,1.05
		C12.31,75.89,12.49,75.27,12.46,74.81z"/>
	<path class="st2" d="M25.32,121.47c-0.02,0.34-0.11,0.54-0.36,0.65c-0.53,0.23-0.84-0.12-1.07-0.48c-0.94-1.49-1.88-2.98-2.76-4.51
		c-1.23-2.14-2.4-4.32-3.31-6.63c-0.17-0.43-0.34-0.87,0.18-1.12c0.61-0.3,0.87,0.2,1.06,0.64c1.64,3.82,3.65,7.44,5.92,10.92
		C25.1,121.13,25.23,121.32,25.32,121.47z"/>
	<path class="st2" d="M63.74,149.6c-0.24,0.72-0.76,0.53-1.28,0.39c-2.62-0.73-5.17-1.65-7.66-2.73c-1.31-0.56-2.6-1.17-3.88-1.8
		c-0.42-0.2-0.92-0.48-0.65-1.08c0.29-0.63,0.81-0.35,1.22-0.14c3.66,1.85,7.46,3.37,11.4,4.49
		C63.32,148.86,63.69,149.05,63.74,149.6z"/>
	<path class="st8" d="M98.46,150.98c-0.53-0.04-0.96,0.06-1.02-0.51c-0.05-0.51,0.28-0.61,0.68-0.72c3.52-0.99,7.06-1.96,10.43-3.41
		c0.52-0.23,1.06-0.41,1.59-0.63c0.43-0.18,0.87-0.3,1.07,0.26c0.18,0.51-0.17,0.76-0.61,0.95c-2.14,0.93-4.32,1.73-6.54,2.46
		C102.16,150.01,100.25,150.55,98.46,150.98z"/>
	<path class="st6" d="M152.41,78.1c0.05,0.48,0.06,1.07-0.56,1.11c-0.71,0.05-0.8-0.54-0.81-1.09c-0.08-3.93-0.82-7.77-1.7-11.58
		c-0.04-0.19-0.06-0.38-0.08-0.57c-0.04-0.42-0.18-0.94,0.42-1.04c0.51-0.09,0.69,0.28,0.82,0.77c0.77,2.81,1.17,5.69,1.6,8.56
		C152.3,75.52,152.31,76.82,152.41,78.1z"/>
	<path class="st12" d="M44.78,24.14c0.02,0.61-0.4,0.81-0.74,1.05c-3.32,2.34-6.56,4.78-9.46,7.63c-0.28,0.28-0.62,0.72-1.09,0.25
		c-0.48-0.48-0.15-0.93,0.18-1.25c3.13-2.94,6.45-5.66,10.07-7.99C44.25,23.51,44.64,23.54,44.78,24.14z"/>
	<path class="st2" d="M124.55,28.2c-0.37-0.53-0.94-0.79-1.43-1.17c-0.41-0.31-0.94-0.69-0.51-1.29c0.43-0.59,0.86-0.09,1.23,0.17
		c3.44,2.45,6.55,5.27,9.44,8.34c0.29,0.31,0.67,0.6,0.18,1.07c-0.54,0.51-0.88,0.07-1.2-0.24c-1.55-1.48-3.06-2.99-4.62-4.45
		c-0.69-0.65-1.48-1.21-2.22-1.81C125.12,28.61,124.71,28.57,124.55,28.2z"/>
	<path class="st13" d="M90.3,9.76c-4.16-0.71-8.52-0.55-12.88-0.4c-0.43,0.01-0.94,0.09-0.98-0.53c-0.04-0.56,0.38-0.7,0.86-0.72
		c4.41-0.1,8.82-0.23,13.21,0.25c0.5,0.05,1.12,0.06,1.16,0.79C91.71,9.68,91.41,9.82,90.3,9.76z"/>
	<path class="st4" d="M133.68,136.48c-0.68-0.29-0.74-0.84-0.35-1.27c1.68-1.87,3.41-3.69,5.15-5.51c0.19-0.2,0.52-0.28,0.8-0.11
		c0.35,0.22,0.37,0.64,0.18,0.89c-1.62,2.11-3.44,4.04-5.38,5.85C133.97,136.42,133.81,136.43,133.68,136.48z"/>
	<path class="st2" d="M46.02,146.77c-0.2,0.42-0.46,0.79-0.98,0.5c-2.27-1.3-4.5-2.66-6.55-4.31c-0.32-0.26-0.39-0.51-0.09-0.83
		c0.3-0.33,0.53-0.41,0.96-0.12c2.01,1.35,4.06,2.65,6.08,3.98C45.72,146.16,45.98,146.39,46.02,146.77z"/>
	<path class="st6" d="M102.62,12.11c-2.46-0.57-4.92-1.16-7.38-1.7c-0.47-0.1-0.89-0.2-0.88-0.73c0.01-0.58,0.43-0.62,0.92-0.56
		c2.42,0.28,4.76,0.94,7.11,1.56c0.45,0.12,0.79,0.34,0.79,0.87C103.13,11.87,102.95,12.06,102.62,12.11z"/>
	<path class="st6" d="M52.59,14.9c0.01,0.7-0.43,0.8-0.75,0.95c-2.01,0.96-4.01,1.94-5.93,3.08c-0.44,0.26-1.08,0.49-1.37-0.16
		c-0.25-0.57,0.34-0.77,0.75-1.02c1.94-1.22,4.03-2.13,6.08-3.14C51.95,14.33,52.48,14.2,52.59,14.9z"/>
	<path class="st6" d="M10.45,100c0.44-0.05,0.59,0.2,0.68,0.48c0.75,2.4,1.51,4.8,2.25,7.2c0.11,0.35,0.04,0.7-0.36,0.82
		c-0.44,0.14-0.69-0.07-0.86-0.5c-0.93-2.24-1.5-4.6-2.2-6.91C9.81,100.63,9.87,100.13,10.45,100z"/>
	<path class="st6" d="M88.27,157.05c-0.52-0.06-1.19,0.15-1.31-0.56c-0.11-0.67,0.5-0.91,1.03-0.89c2.31,0.1,4.53-0.59,6.81-0.69
		c0.45-0.02,0.91-0.13,0.95,0.51c0.04,0.58-0.38,0.67-0.84,0.73C92.7,156.44,90.49,156.75,88.27,157.05z"/>
	<path class="st7" d="M144.09,40.82c0,0.35-0.02,0.6-0.32,0.67c-0.34,0.08-0.64,0.1-0.88-0.26c-0.57-0.82-1.14-1.64-1.76-2.43
		c-0.85-1.09-1.74-2.14-2.6-3.23c-0.28-0.36-0.44-0.85-0.07-1.17c0.42-0.37,0.79,0,1.08,0.33c1.54,1.76,2.95,3.62,4.27,5.55
		C143.95,40.47,144.03,40.69,144.09,40.82z"/>
	<path class="st14" d="M156.65,86.01c0,1.29,0.03,2.58-0.01,3.87c-0.02,0.47-0.21,1.09-0.76,1.04c-0.58-0.06-0.74-0.58-0.65-1.2
		c0.33-2.27,0.44-4.57,0.39-6.87c-0.01-0.45-0.12-1.05,0.62-1.05c0.77,0,0.58,0.62,0.59,1.05c0.03,1.05,0.01,2.1,0.01,3.16
		C156.78,86.01,156.72,86.01,156.65,86.01z"/>
	<path class="st10" d="M87.98,152.68c-0.82,0.01-1.34,0.01-1.39-0.66c-0.04-0.55,0.44-0.53,0.8-0.6c2.25-0.44,4.57-0.36,6.79-0.99
		c0.42-0.12,0.77,0.12,0.88,0.54c0.16,0.6-0.33,0.77-0.74,0.83C92.11,152.14,89.89,152.43,87.98,152.68z"/>
	<path class="st2" d="M135.53,36.96c0.33,0.04,0.46,0.31,0.65,0.52c1.43,1.65,2.76,3.39,3.98,5.21c0.24,0.36,0.73,0.79,0.06,1.19
		c-0.55,0.34-0.89-0.06-1.19-0.45c-1.28-1.71-2.55-3.43-3.84-5.13c-0.25-0.32-0.46-0.62-0.25-1.03
		C135.06,37.05,135.27,36.95,135.53,36.96z"/>
	<path class="st6" d="M100.8,16.15c-2.06-0.65-4.26-1.04-6.46-1.48c-0.37-0.07-0.91-0.22-0.76-0.82c0.13-0.52,0.59-0.63,1.03-0.52
		c2.22,0.54,4.49,0.84,6.65,1.6c0.39,0.14,0.77,0.28,0.67,0.76C101.81,16.24,101.33,16.2,100.8,16.15z"/>
	<path class="st4" d="M14.82,98.91c0.41,0.11,0.62,0.42,0.73,0.8c0.62,2.05,1.23,4.1,1.84,6.15c0.14,0.47,0.32,1.03-0.27,1.24
		c-0.72,0.25-0.78-0.38-0.98-0.89c-0.8-1.99-1.33-4.06-1.91-6.12C14.05,99.47,14.13,99.07,14.82,98.91z"/>
	<path class="st10" d="M20.26,52.48c-0.31,0.63-0.71,1.39-1.04,2.17c-0.6,1.4-1.16,2.82-1.72,4.24c-0.17,0.43-0.42,0.63-0.87,0.53
		c-0.55-0.13-0.49-0.59-0.36-0.93c0.82-2.14,1.59-4.3,2.69-6.32c0.2-0.37,0.46-0.63,0.9-0.53C20.21,51.72,20.29,52.01,20.26,52.48z"
		/>
	<path class="st9" d="M54.22,19.6C52.09,20.55,50,21.57,48,22.76c-0.4,0.24-0.81,0.46-1.13,0.02c-0.3-0.41-0.13-0.83,0.32-1.08
		c2.1-1.19,4.21-2.38,6.48-3.23c0.16-0.06,0.38,0.01,0.57,0.02C54.51,18.86,54.57,19.23,54.22,19.6z"/>
	<path class="st15" d="M151.03,89.89c0.07-2.39,0.15-4.77,0.23-7.16c0.01-0.44,0-0.92,0.61-0.94c0.66-0.03,0.77,0.45,0.76,0.97
		c-0.02,2.39-0.2,4.77-0.51,7.14C151.75,90.22,151.39,90.21,151.03,89.89z"/>
	<path class="st2" d="M130.28,131.96c1.63-1.33,2.97-2.95,4.36-4.52c0.37-0.41,0.78-1.06,1.38-0.49c0.52,0.49-0.02,0.97-0.36,1.35
		c-1.39,1.5-2.8,2.97-4.19,4.47c-0.36,0.38-0.72,0.62-1.24,0.36C129.73,132.71,129.92,132.33,130.28,131.96z"/>
	<path class="st16" d="M16.25,50.16c-0.19,1.79-1.42,3.18-1.89,4.87c-0.2,0.73-0.6,1.4-0.87,2.11c-0.18,0.46-0.32,1-0.96,0.78
		c-0.64-0.23-0.42-0.8-0.26-1.22c0.87-2.21,1.68-4.45,2.83-6.54C15.48,49.89,15.87,49.84,16.25,50.16z"/>
	<path class="st2" d="M48.18,142.9c-0.14,0.74-0.66,0.74-1.09,0.49c-2.02-1.17-4-2.4-5.85-3.82c-0.33-0.26-0.54-0.57-0.26-0.98
		c0.28-0.41,0.65-0.33,1-0.1c1.91,1.26,3.8,2.52,5.71,3.77C47.96,142.42,48.1,142.64,48.18,142.9z"/>
	<path class="st0" d="M20.81,102.92c0.03-0.38,0.03-0.77,0.11-1.14c0.03-0.13,0.26-0.26,0.42-0.31c0.17-0.06,0.43-0.03,0.43,0.23
		c-0.01,1.73,1.33,3.01,1.55,4.66c0.04,0.31-0.06,0.56-0.17,0.82l0,0c-0.21,0.1-0.42,0.21-0.63,0.31
		C21.7,106.06,21.14,104.53,20.81,102.92z"/>
	<path class="st4" d="M116,15.97c1.14,0.54,2.38,1.12,3.5,1.94c0.27,0.2,0.31,0.45,0.15,0.75c-0.2,0.35-0.51,0.47-0.84,0.31
		c-1.14-0.58-2.27-1.18-3.37-1.82c-0.25-0.15-0.51-0.48-0.29-0.86C115.3,16.01,115.56,15.91,116,15.97z"/>
	<path class="st17" d="M8.99,85.12c-0.19,0.5,0.67,1.94-0.54,1.98c-1.03,0.04-0.56-1.47-0.77-2.28c-0.14-0.54-0.05-1.13-0.07-1.7
		c-0.02-0.54,0.17-0.99,0.77-0.96c0.57,0.02,0.58,0.55,0.6,0.97C9.01,83.7,8.99,84.27,8.99,85.12z"/>
	<path class="st18" d="M25.57,129.63c0.44,0,0.66,0.15,0.86,0.38c0.71,0.82,1.41,1.66,2.16,2.44c0.32,0.33,0.43,0.7,0.17,1
		c-0.33,0.38-0.77,0.3-1.11-0.07c-0.76-0.85-1.53-1.68-2.25-2.56C25.02,130.36,25,129.87,25.57,129.63z"/>
	<path class="st6" d="M66.66,15.42c-0.36-0.01-0.75-0.06-0.85-0.54c-0.1-0.44,0.24-0.64,0.55-0.72c1.15-0.3,2.31-0.55,3.47-0.8
		c0.38-0.08,0.67,0.12,0.77,0.48c0.13,0.46-0.15,0.77-0.54,0.86C68.94,14.97,67.81,15.18,66.66,15.42z"/>
	<path class="st19" d="M119.58,147.27c-0.44-0.06-0.67-0.13-0.76-0.39c-0.13-0.36-0.02-0.67,0.3-0.87c1-0.64,2-1.28,3.03-1.87
		c0.34-0.19,0.79-0.19,1.04,0.18c0.28,0.42,0,0.71-0.36,0.93C121.7,145.95,120.57,146.65,119.58,147.27z"/>
	<path class="st4" d="M152.31,56.62c0.05,0.59-0.03,0.91-0.43,1c-0.36,0.08-0.66-0.06-0.8-0.43c-0.41-1.06-0.84-2.12-1.23-3.2
		c-0.15-0.4-0.29-0.9,0.28-1.09c0.5-0.17,0.75,0.12,0.93,0.61C151.47,54.62,151.94,55.71,152.31,56.62z"/>
	<path class="st2" d="M65.78,11.14c-0.44,0.05-0.79-0.06-0.88-0.52c-0.07-0.38,0.17-0.71,0.51-0.75c1.19-0.14,2.29-0.73,3.52-0.65
		c0.36,0.02,0.82-0.12,0.88,0.46c0.05,0.47-0.2,0.66-0.66,0.74C68.02,10.63,66.9,10.89,65.78,11.14z"/>
	<path class="st20" d="M117.32,143.47c-0.46-0.03-0.72-0.14-0.8-0.46c-0.06-0.24-0.03-0.49,0.2-0.63c1.1-0.68,2.19-1.35,3.3-2.01
		c0.31-0.18,0.55,0.05,0.76,0.25c0.22,0.2,0.2,0.44,0.01,0.63C119.73,142.23,118.47,142.88,117.32,143.47z"/>
	<path class="st2" d="M153.73,104.35c-0.43,1.25-0.83,2.52-1.3,3.76c-0.14,0.36-0.55,0.33-0.88,0.24c-0.33-0.09-0.45-0.33-0.34-0.66
		c0.39-1.16,0.78-2.33,1.19-3.49c0.14-0.39,0.39-0.68,0.86-0.53C153.56,103.75,153.7,103.99,153.73,104.35z"/>
	<path class="st2" d="M70.73,154.97c0.7-0.08,1.47,0.25,2.27,0.37c0.45,0.07,1.02,0.14,0.86,0.86c-0.13,0.61-0.6,0.5-1.03,0.44
		c-0.99-0.15-1.97-0.33-2.96-0.47c-0.45-0.06-0.93-0.1-0.92-0.67c0.02-0.74,0.62-0.54,1.07-0.55
		C70.22,154.94,70.41,154.95,70.73,154.97z"/>
	<path class="st7" d="M26.12,35.24c-0.07,0.14-0.14,0.37-0.28,0.55c-0.67,0.87-1.37,1.71-2.04,2.58c-0.28,0.37-0.64,0.47-1,0.27
		c-0.43-0.25-0.31-0.72-0.1-1.01c0.71-0.96,1.48-1.87,2.23-2.79c0.21-0.25,0.49-0.26,0.79-0.21C26.02,34.67,26.08,34.9,26.12,35.24z
		"/>
	<path class="st13" d="M29.47,37.91c0,0.46-2.32,3.43-2.66,3.52c-0.24,0.06-0.48,0.07-0.65-0.15c-0.19-0.24-0.24-0.57-0.07-0.8
		c0.73-0.98,1.5-1.94,2.27-2.89c0.2-0.24,0.51-0.22,0.79-0.13C29.43,37.55,29.46,37.78,29.47,37.91z"/>
	<path class="st18" d="M32.06,130.14c-0.07,0.13-0.13,0.38-0.29,0.53c-0.26,0.24-0.53,0.11-0.75-0.12c-0.84-0.9-1.68-1.81-2.5-2.72
		c-0.22-0.24-0.17-0.54,0.02-0.79c0.16-0.21,0.39-0.27,0.64-0.24C29.54,126.84,32.04,129.66,32.06,130.14z"/>
	<path class="st13" d="M73.61,152.32c-1.17-0.17-2.16-0.3-3.15-0.45c-0.5-0.07-0.78-0.34-0.69-0.88c0.1-0.59,0.5-0.64,0.96-0.5
		c0.92,0.29,1.86,0.43,2.81,0.45c0.56,0.01,0.96,0.18,0.87,0.83C74.34,152.38,73.86,152.33,73.61,152.32z"/>
	<path class="st21" d="M147.32,106.85c-0.15-0.03-0.4-0.28-0.21-0.83c0.36-1.02,0.7-2.06,1.06-3.08c0.14-0.4,0.41-0.67,0.85-0.58
		c0.3,0.06,0.53,0.32,0.47,0.63c-0.24,1.26-0.65,2.47-1.21,3.63C148.19,106.81,147.95,106.94,147.32,106.85z"/>
	<path class="st4" d="M148.18,58.21c0.03,0.41,0.01,0.71-0.3,0.84c-0.36,0.14-0.7,0-0.83-0.33c-0.45-1.08-0.86-2.19-1.28-3.29
		c-0.14-0.36-0.04-0.67,0.29-0.85c0.3-0.16,0.65,0.02,0.75,0.22C147.37,55.93,147.93,57.07,148.18,58.21z"/>
	<path class="st16" d="M117.57,22.07c-0.08,0.59-0.48,0.86-0.91,0.65c-1.15-0.55-2.24-1.2-3.35-1.82c-0.28-0.16-0.36-0.45-0.16-0.73
		c0.18-0.24,0.48-0.42,0.75-0.29c1.13,0.56,2.24,1.16,3.35,1.77C117.4,21.73,117.48,21.94,117.57,22.07z"/>
	<path class="st22" d="M13.41,84.56c0,0.53,0.02,1.05-0.01,1.58c-0.02,0.38-0.01,0.8-0.56,0.83c-0.53,0.03-0.65-0.32-0.66-0.73
		c-0.03-1.1-0.06-2.2-0.06-3.3c0-0.4,0.09-0.8,0.63-0.76c0.48,0.04,0.61,0.38,0.61,0.81c0,0.53,0,1.05,0,1.58
		C13.37,84.56,13.39,84.56,13.41,84.56z"/>
	<path class="st0" d="M64.61,20.21c-1.48,1.05-3.03,1.9-4.94,1.67C61.22,21.03,62.9,20.58,64.61,20.21z"/>
	<path class="st1" d="M145.82,69.74c-0.99-0.43-0.83-1.47-1.11-2.24c-0.2-0.54-0.05-1.2-0.05-1.81c-0.07-0.14-0.02-0.21,0.14-0.22
		C145.19,66.89,145.79,68.24,145.82,69.74z"/>
	<path class="st0" d="M66.92,19.63c-0.07,0.35,0.42,0.73,0.01,1.03c-0.35,0.25-0.72,0.06-1.03-0.18c-0.31-0.25-0.68-0.28-1.06-0.3
		C65.49,19.81,66.16,19.58,66.92,19.63z"/>
	<path class="st3" d="M89.39,146.97c1.26-0.86,2.68-0.58,4.07-0.59C92.17,147.04,90.76,146.87,89.39,146.97z"/>
	<path class="st3" d="M87.07,147.22c-0.75,0-1.51,0-2.26-0.02c-0.08,0-0.16-0.07-0.54-0.24c1.91,0,3.52,0,5.13,0
		C88.67,147.41,87.86,147.22,87.07,147.22z"/>
	<path class="st1" d="M140.09,111.81c-0.06-0.99-0.05-1.94,1.14-2.32C141,110.34,140.67,111.13,140.09,111.81z"/>
	<path class="st2" d="M141.83,57.05c-0.7-0.39-1.76-0.63-0.67-1.71C141.36,55.92,141.91,56.36,141.83,57.05z"/>
	<path class="st23" d="M28.33,116.69c0.06,0.63-0.58,0.3-0.78,0.56c-0.23-0.36-0.46-0.72-0.69-1.08c0.12-0.25,0.34-0.33,0.6-0.35
		l0,0C27.65,116.21,27.94,116.5,28.33,116.69z"/>
	<path class="st0" d="M74.94,18.16c0.65,0,1.3,0,1.94,0c0,0.09,0,0.18,0.01,0.28c-1.15,0-2.31,0-3.46,0
		C73.89,18.13,74.41,18.1,74.94,18.16z"/>
	<path class="st2" d="M144.79,65.48c-0.06,0.06-0.11,0.13-0.14,0.22c-0.44-0.52-0.86-1.05-0.26-1.72
		C144.78,64.41,144.71,64.96,144.79,65.48z"/>
	<path class="st0" d="M69.22,19.07c-0.47,0.67-1.09,0.8-1.83,0.5C67.95,19.21,68.54,18.99,69.22,19.07z"/>
	<path class="st0" d="M70.94,18.75c0.46,0,0.92,0,1.39,0c0,0.09,0,0.17-0.01,0.26c-0.78,0-1.56,0-2.34,0
		C70.26,18.79,70.57,18.67,70.94,18.75z"/>
	<path class="st24" d="M151.03,89.89c0.36,0,0.73,0,1.09,0.01c0.05,0.43-0.18,0.58-0.56,0.58C151.15,90.49,150.97,90.3,151.03,89.89
		z"/>
	<path class="st25" d="M16.25,50.16c-0.38,0-0.76,0-1.15,0c0.05-0.4,0.31-0.56,0.67-0.56C16.12,49.6,16.24,49.84,16.25,50.16z"/>
	<path class="st1" d="M139.7,112.63c-0.35-0.5-0.19-0.76,0.38-0.82C140.1,112.15,139.99,112.43,139.7,112.63z"/>
	<path class="st23" d="M34.66,123.89c-0.83-0.55-1.89-0.9-1.74-2.22c0.09-0.8-0.92-0.51-1.12-1.11c-0.45-1.39-0.97-2.76-2.32-3.58
		c-0.11-0.73,1.25-0.54,0.88-0.96c-0.58-0.66-0.79-1.53-1.38-2.1c-0.87-0.85-1.1-2.15-2.17-2.84c-0.23-0.15,0.01-0.41,0.13-0.63
		c0.62-1.19,0.09-2.25-1.3-2.27c-0.99-0.01-0.83-0.38-0.54-0.91c0.45-0.82,0.72-1.52-0.57-1.77c-0.09-0.02-0.23-0.22-0.21-0.31
		c0.29-1.29-0.8-2.34-0.59-3.6c0.12-0.74-0.35-1.25-0.57-1.87c-0.43-1.21-0.59,0.3-1.09-0.04c-0.24-0.2-0.21-0.8-0.03-1.04
		c1.58-2.16-0.5-4.23,0.18-6.66c-1.17,0.83-0.63,1.71-0.81,2.41c-0.18,0.72,0.5,1.66-0.57,2.14c0-0.19,0-0.38,0-0.58
		c-0.55-1.48-0.31-3-0.16-4.5c0.05-0.54,0.05-1.02-0.07-1.54c-0.39-1.6-0.4-3.22,0.06-4.81c0.38-1.32,0.43-2.66,0.06-3.96
		c-0.47-1.66-0.48-3.3-0.11-4.95c0.1-0.43,0.16-0.82,0.02-1.26c-0.12-0.37-0.12-0.77,0.12-1.1c1.34-1.89,1.55-2.39,1.98-4.44
		c0.19-0.9,0.49-1.76,1.56-1.99c0.34,0.78,0.24,1.59,0.07,2.37c-1.49,7.16-1.83,14.36-0.71,21.6c0.81,5.19,2.3,10.19,4.35,15.03
		c1.35,3.2,3.15,6.13,5.03,9.03c0.54,0.98,1.11,1.94,1.87,2.78c4.76,6.52,10.8,11.6,17.69,15.72c0.32,0.23,0.67,0.43,1.03,0.6
		c0.49,0.26,0.92,0.59,1.1,1.15c0.11,1.17,1.24,0.56,1.79,0.99c0.29,0.23,0.74,0.3,0.75,0.76c0,0.52-0.35,0.74-0.83,0.8
		c-0.38-0.02-0.76-0.11-1.13-0.19c-0.06-0.01-0.12-0.03-0.19-0.04c-1.28,0.29-2.25-0.06-3.03-1.19c-0.63-0.9-1.74-1.24-2.63-1.83
		c-0.39-0.26-0.71-0.09-1.02,0.19c-0.61,0.54-1.25,0.04-1.48-0.31c-0.44-0.66,0.21-0.69,0.7-0.75c0.21-0.02,0.25-0.26,0.25-0.46
		c-0.01-0.22-0.1-0.3-0.35-0.29c-1.21,0.02-1.84-0.85-2.6-1.62c-0.78-0.79-1.42-1.89-2.79-1.83c-0.18,0.01-0.45-0.02-0.54-0.14
		c-0.92-1.16-2.38-1.28-3.56-1.93c-0.23-0.12-1.64-2.57-1.66-2.84c-0.03-0.46,0.11-1-0.58-1.12c-0.22,0.1-0.42,0.26-0.68,0.24
		C34.94,124.12,34.79,124.03,34.66,123.89z"/>
	<path class="st26" d="M24.37,67.46c-0.84,0.77-1.32,1.64-1.26,2.86c0.05,1.13-1.14,2.09-0.59,3.35c0.01,0.03-0.04,0.11-0.07,0.12
		c-0.77,0.06-2.15-0.48-1.23,1.23c0.53,0.98-0.38,1.67-0.45,2.56c-0.17,1.99,0.76,3.78,0.71,5.75c-0.04,1.49-0.96,2.78-0.66,4.31
		c0.17,0.86-0.17,1.81,0.49,2.6c0.15,0.18,0.18,0.63,0.06,0.82c-0.94,1.56-0.38,3.26-0.53,4.89c-0.4-0.06-0.6-0.31-0.56-0.7
		c0.31-3.33-1.27-6.38-1.22-9.8c0.05-3.15,0.9-6.19,0.8-9.35c-0.04-1.27,0.34-2.76,0.41-4.17c0.05-0.97-0.3-2.06,0.94-2.61
		c0.12-0.05,0.22-0.35,0.19-0.51c-0.36-1.95,0.72-3.57,1.19-5.33c0.04-0.14,0.03-0.33,0.12-0.4c1.17-0.99,1.42-2.09,0.08-3.53
		c0.58,0.16,0.77,0.28,0.92,0.24c0.42-0.12,0.5,0.71,0.89,0.35c0.36-0.33,0.02-0.66-0.17-1c-0.22-0.38-0.19-0.83,0-1.23
		c0.64-0.26,0.25,1.02,0.97,0.63c0.69-0.38,0.24-0.82,0.12-1.32c-0.18-0.73-0.16-1.51-0.23-2.27c-0.03-0.29,0.16-0.47,0.38-0.54
		c1.71-0.51,2.23-1.78,2.13-3.43c0.75-0.04,0.4,1.03,1.1,0.93c0.67,0.27,1.65,0.29,1.17,1.47c0.02,0.1-0.01,0.18-0.08,0.25
		c-0.54,0.5-0.85,1.13-1.05,1.82c-0.03,0.23-0.06,0.46-0.09,0.69c-0.1,0.35-0.25,0.67-0.49,0.94c-1.54,3.11-2.84,6.31-3.51,9.73
		C24.66,67,24.86,67.47,24.37,67.46z"/>
	<path class="st27" d="M30.07,53.35c-0.07-0.33,0.1-0.83-0.51-0.78c-0.52,0.04-0.62-0.29-0.66-0.69c0.54-1.48,2.21-1.94,2.96-3.24
		c0.14-0.24,0.66-0.51,0.04-0.74c-0.47-0.17-0.9-0.44-0.55-0.89c0.31-0.41,0.91-0.71,1.47-0.63c0.34,0.05,0.97,0.44,0.97,0.18
		c-0.01-1.01,1.43-1.12,1.2-2.08c-0.11-0.43-0.14-0.5,0.29-0.69c0.79-0.35,2-0.45,1.37-1.91c-0.17-0.39,0.33-0.4,0.57-0.31
		c0.35,0.13,0.66,0.36,0.99,0.55C35.22,45.67,32.53,49.43,30.07,53.35z"/>
	<path class="st2" d="M110.68,27.69c0.19,1.33-0.69,0.95-1.42,0.92C109.71,27.86,109.71,27.86,110.68,27.69z"/>
	<path class="st2" d="M111.76,29.47c-0.06,0.08-0.12,0.24-0.21,0.27c-0.29,0.08-0.26-0.18-0.26-0.34c0-0.11,0.08-0.31,0.15-0.32
		C111.67,29.05,111.73,29.24,111.76,29.47z"/>
	<path class="st2" d="M143.52,68.01c0.08,0.44-0.25,1.01,0.7,1.05c0.71,0.03,0.64,1.48-0.12,2.41c-0.19-0.34-0.38-0.34-0.58,0
		c-0.39-0.06-0.57-0.3-0.57-0.69c0.01-1.5-0.27-2.88-1.19-4.17c-0.15-0.21-0.68-1.51,0.31-2.05c1.2,0.32,1.28,1.34,1.44,2.31
		C143.15,67.24,143.15,67.63,143.52,68.01z"/>
	<path class="st2" d="M138.34,54.76c-0.1,1.05-0.04,1.91,1.44,1.77c0.63-0.06,1.01,0.34,0.54,1.02c-0.34,0.49-0.19,1.28-0.99,1.53
		c-0.17-0.44-0.29-1.01-0.99-0.87c-1.08-0.36-1.6-0.89-0.7-1.98C137.99,55.82,137.43,54.94,138.34,54.76z"/>
	<path class="st3" d="M116.43,135.97c0,0.26-0.08,0.48-0.36,0.52c-0.27,0.04-0.3-0.16-0.25-0.36c0.05-0.21,0.05-0.51,0.33-0.55
		C116.41,135.54,116.4,135.79,116.43,135.97z"/>
	<path class="st2" d="M141.22,59.95c-0.04,0.46,0.16,1.04-0.58,1.15C140.69,60.64,140.48,60.06,141.22,59.95z"/>
	<path class="st2" d="M141.79,63.4c0.59,0.12,0.74,0.4,0.29,0.86C141.77,64.05,141.8,63.72,141.79,63.4z"/>
	<path class="st2" d="M132.11,47.52c0.29,0.17,0.49,0.46,0.3,0.66c-0.27,0.28-0.34-0.07-0.38-0.27
		C132.01,47.79,132.08,47.66,132.11,47.52z"/>
	<path class="st3" d="M80.59,147.02c-0.08,0.04-0.19,0.13-0.3,0.14c-0.15,0.01-0.25-0.1-0.16-0.26c0.04-0.07,0.14-0.13,0.21-0.15
		C80.5,146.73,80.61,146.8,80.59,147.02z"/>
	<path class="st3" d="M112.3,138.16c-0.08,0.05-0.18,0.12-0.29,0.18c-0.05-0.12-0.14-0.23-0.15-0.35c0-0.07-0.18-0.31,0.12-0.26
		C112.18,137.77,112.32,137.87,112.3,138.16z"/>
	<path class="st0" d="M72.04,19.66c0.79-0.02,1.48-0.15,2.23,0.13C73.3,20.3,73.3,20.3,72.04,19.66z"/>
	<path class="st0" d="M70.74,20.01c-0.24,0.37-0.53,0.39-0.85,0.21c-0.14-0.08-0.19-0.2-0.04-0.31
		C70.17,19.68,70.46,19.77,70.74,20.01z"/>
	<path class="st23" d="M80.73,142.27c0.97,0,1.93,0,2.9,0c1.93-0.17,3.87-0.31,5.8-0.5c0.37-0.03,0.74-0.05,1.11-0.08
		c0.85-0.07,1.65-0.45,2.52-0.37c3.47-0.54,6.8-1.59,10.09-2.76c2.64-0.94,5.11-2.26,7.65-3.42c0.64,0.32,0.33,0.47-0.07,0.76
		c-1.93,1.41-4.2,2.12-6.3,3.18c-0.66,0.33-1.25,1.06-2.16,0.5c-0.1-0.06-0.55,0.14-0.59,0.3c-0.41,1.42-1.64,1.01-2.59,1.37
		c-1.21,0.45-2.78-0.59-3.75,0.95c-0.1,0.15-1.3-0.6-1.98-0.06c-0.59,0.47-1.25,0.7-1.97,0.7c-0.75,0-1.37,0.32-2.01,0.63
		c-1.75,0.86-3.5,0.47-5.35,0.3c-1.33-0.12-2.79-0.69-4.15-0.18c-1.77,0.67-3.43,0.61-5.22,0.01c-1.46-0.49-3.09-0.45-4.54-0.94
		c-1.5-0.51-2.82-0.41-4.17,0.31c-0.43,0.23-0.96,0.18-1.12-0.27c-0.18-0.51,0.66-0.23,0.74-0.72c-1.41-1.21-3.32-0.67-4.92-1.32
		c-0.56-0.23-1.2-0.57-1.84-0.61c-0.89-0.05-1.59-0.74-2.68-0.33c-0.64,0.24-1.46-0.66-1.01-1.72c0.38-0.06,0.77-0.09,1.15,0
		c0.38-0.07,0.89-0.16,0.69-0.65c-0.25-0.6-1.12-0.57-1.47-0.51c-1.13,0.18-1.03-0.4-0.95-1.1c0.68-0.43,1.3-0.09,1.89,0.2
		c3.18,1.56,6.52,2.73,9.91,3.72c0.46,0.13,0.94,0.25,1.11,0.78c0.75,0.14,1.44,0.59,2.25,0.48c0.57,0.34,1.27-0.24,1.81,0.28l0,0
		c1.05,0.19,2.12,0.34,3.17,0.52c0.19,0.03,0.38,0.06,0.57,0.08C77.09,141.78,78.9,142.19,80.73,142.27z"/>
	<path class="st23" d="M68.3,143.75c1.19-0.34,2.38-0.37,3.57,0.02C70.68,144.12,69.49,144.15,68.3,143.75z"/>
	<path class="st1" d="M124.38,127.06c-0.16,0.31-0.36,0.66-0.77,0.67c-0.25,0-0.37-0.28-0.36-0.52c0.02-0.35,0.16-0.66,0.56-0.67
		C124.11,126.53,124.35,126.68,124.38,127.06z"/>
	<path class="st1" d="M125.07,124.44c0.55,0.03,0.47,0.41,0.48,0.8c0.01,0.31,0.08,0.54-0.37,0.5c-0.41-0.03-0.27-0.24-0.22-0.48
		C125.02,124.99,125.04,124.72,125.07,124.44C125.07,124.44,125.07,124.44,125.07,124.44z"/>
	<path class="st1" d="M128.07,120.72c0.2-0.33,0.41-0.65,0.77-0.83C129.06,120.61,129,121.07,128.07,120.72z"/>
	<path class="st1" d="M127.7,123.41c0.14,0.3,0.25,0.59-0.04,0.84c-0.05,0.04-0.3-0.03-0.33-0.09
		C127.2,123.82,127.34,123.57,127.7,123.41z"/>
	<path class="st11" d="M35.24,123.89c0.19-0.04,0.38-0.28,0.58,0c-0.01,0.41-0.2,0.7-0.58,0.86l0,0
		C35.03,124.46,34.99,124.18,35.24,123.89z"/>
	<path class="st1" d="M143.52,71.47c0.06-0.39-0.14-0.82,0.17-1.2c0.59,0.26,0.33,0.79,0.4,1.2
		C143.91,71.47,143.71,71.47,143.52,71.47z"/>
	<path class="st1" d="M143.52,68.01c-0.81-0.38-0.81-0.77,0-1.15C143.52,67.24,143.52,67.63,143.52,68.01z"/>
	<path class="st1" d="M142.1,61.26c0.21,0.07,0.25,0.23,0.21,0.42c-0.04,0.18-0.15,0.35-0.36,0.31c-0.07-0.01-0.12-0.23-0.12-0.35
		C141.82,61.46,141.85,61.27,142.1,61.26z"/>
	<path class="st0" d="M23.14,107.18c0.53,0.5,0.53,0.5,0.18,1.19C22.99,108.01,23.21,107.57,23.14,107.18L23.14,107.18z"/>
	<path class="st23" d="M25.72,109.89c-0.23-0.07-0.26-0.26-0.24-0.45c0.02-0.2,0.1-0.4,0.34-0.32c0.09,0.03,0.15,0.23,0.16,0.36
		C26.01,109.67,25.98,109.87,25.72,109.89z"/>
	<path class="st23" d="M27.46,115.82c0.27-0.3,0.13-0.86,0.74-1.05C28.21,115.37,28.04,115.73,27.46,115.82L27.46,115.82z"/>
	<path class="st3" d="M35.24,123.89c0,0.29,0,0.58,0,0.86c-0.37-0.17-0.57-0.45-0.58-0.86C34.85,123.89,35.05,123.89,35.24,123.89z"
		/>
	<path class="st27" d="M28.94,55.43c-0.16-0.9,0.22-1.5,1.05-1.82C29.73,54.27,29.52,54.96,28.94,55.43z"/>
	<path class="st3" d="M56.26,138c-0.38,0.25-0.77,0.25-1.15,0C55.49,137.61,55.88,137.61,56.26,138z"/>
	<path class="st0" d="M26.23,55.32c0.47,0.58,1.11,0.86,0.69,1.62c-0.11,0.2-0.3,0.26-0.47,0.15
		C25.78,56.65,25.99,56.09,26.23,55.32z"/>
</g>
</svg>
